HIERARCHY
ROOT RootJoint
{
    OFFSET   0.000000   0.000000   0.000000
    CHANNELS 6 Xposition Yposition Zposition Xrotation Yrotation Zrotation
    JOINT pelvis_lowerback
    {
        OFFSET   0.000000   0.093605   0.000000
        CHANNELS 3 Xrotation Yrotation Zrotation
        JOINT lowerback_torso
        {
            OFFSET   0.000000   0.100000   0.000000
            CHANNELS 3 Xrotation Yrotation Zrotation
            JOINT torso_head
            {
                OFFSET   0.000000   0.282350   0.000000
                CHANNELS 3 Xrotation Yrotation Zrotation
                End Site
                {
                    OFFSET   0.000000   0.192650   0.000000
                }
            }
            JOINT rTorso_Clavicle
            {
                OFFSET  -0.001000   0.157500   0.000000
                CHANNELS 3 Xrotation Yrotation Zrotation
                JOINT rShoulder
                {
                    OFFSET  -0.117647   0.000000   0.000000
                    CHANNELS 3 Xrotation Yrotation Zrotation
                    JOINT rElbow
                    {
                        OFFSET  -0.245000   0.000000   0.000000
                        CHANNELS 3 Xrotation Yrotation Zrotation
                        JOINT rWrist
                        {
                            OFFSET  -0.240000   0.000000   0.000000
                            CHANNELS 3 Xrotation Yrotation Zrotation
                            End Site
                            {
                                OFFSET  -0.116353  -0.002500   0.000000
                            }
                        }
                    }
                }
            }
            JOINT lTorso_Clavicle
            {
                OFFSET   0.001000   0.157500   0.000000
                CHANNELS 3 Xrotation Yrotation Zrotation
                JOINT lShoulder
                {
                    OFFSET   0.117647   0.000000   0.000000
                    CHANNELS 3 Xrotation Yrotation Zrotation
                    JOINT lElbow
                    {
                        OFFSET   0.245000   0.000000   0.000000
                        CHANNELS 3 Xrotation Yrotation Zrotation
                        JOINT lWrist
                        {
                            OFFSET   0.240000   0.000000   0.000000
                            CHANNELS 3 Xrotation Yrotation Zrotation
                            End Site
                            {
                                OFFSET   0.116353  -0.002500   0.000000
                            }
                        }
                    }
                }
            }
        }
    }
    JOINT rHip
    {
        OFFSET  -0.100000  -0.051395   0.000000
        CHANNELS 3 Xrotation Yrotation Zrotation
        JOINT rKnee
        {
            OFFSET   0.000000  -0.410000   0.000000
            CHANNELS 3 Xrotation Yrotation Zrotation
            JOINT rAnkle
            {
                OFFSET   0.000000  -0.390000   0.000000
                CHANNELS 3 Xrotation Yrotation Zrotation
                JOINT rToeJoint
                {
                    OFFSET   0.000000  -0.050000   0.130000
                    CHANNELS 3 Xrotation Yrotation Zrotation
                    End Site
                    {
                        OFFSET  -0.010000   0.002000   0.060000
                    }
                }
            }
        }
    }
    JOINT lHip
    {
        OFFSET   0.100000  -0.051395   0.000000
        CHANNELS 3 Xrotation Yrotation Zrotation
        JOINT lKnee
        {
            OFFSET   0.000000  -0.410000   0.000000
            CHANNELS 3 Xrotation Yrotation Zrotation
            JOINT lAnkle
            {
                OFFSET   0.000000  -0.390000   0.000000
                CHANNELS 3 Xrotation Yrotation Zrotation
                JOINT lToeJoint
                {
                    OFFSET   0.000000  -0.050000   0.130000
                    CHANNELS 3 Xrotation Yrotation Zrotation
                    End Site
                    {
                        OFFSET   0.010000   0.002000   0.060000
                    }
                }
            }
        }
    }
}
MOTION
Frames: 7
Frame Time:   0.008333
 -2.429405   0.887350   4.849137  -0.072103  -7.531902   0.722262   2.616014   5.835985   0.717062  -0.154571   0.836576   1.535400  -3.004190   0.701803   2.352848   2.040265   0.648495   5.398679   6.965568  19.496041  47.874851  -0.001181  21.843217  -0.000336   9.810185   2.531868   3.097830   2.393436   4.548677  -6.964300  15.457145 -11.923543 -52.711903   0.000663 -12.302410  -0.000862   9.818506  -2.163787  -6.427515  19.123539   0.704384  -3.390755  11.490738   0.003071  -0.002832  -6.116512   3.739441   0.740600 -37.475490  -0.002496   0.004941 -23.780750  -2.739447   2.387629  15.105147   0.006200  -0.009943  -2.199451   5.911110   0.227209  -0.451131  -0.000012  -0.000769
 -2.427322   0.886968   4.858268   0.034020  -7.832794   0.765453   2.445407   5.890189   0.596802  -0.177840   0.896948   1.596817  -3.023591   0.691129   2.412141   2.066115   0.665017   5.514560   7.142915  19.455287  47.933368  -0.001333  21.549046  -0.000573   9.843970   2.598596   3.112113   2.390338   4.485983  -6.986308  15.340677 -11.934023 -52.555350   0.000808 -12.140207  -0.000841   9.819506  -2.160965  -6.391298  18.857997   0.810084  -3.734472  12.685379   0.004252  -0.004646  -5.157598   3.805060   1.166003 -40.027778   0.001615   0.011786 -23.418397  -2.851230   2.059367  15.473185   0.005935  -0.009656  -1.990188   5.961365   0.466145  -0.356358  -0.000013  -0.001000
 -2.425162   0.887584   4.866942   0.091003  -7.891587   1.030619   2.405875   5.852408   0.279322  -0.177109   0.883649   1.582580  -3.048233   0.678120   2.462743   2.097048   0.691458   5.701890   7.307626  19.418776  48.017398  -0.001737  21.262665  -0.000431   9.877526   2.590008   3.116549   2.322366   4.360974  -7.025419  15.182742 -11.976416 -52.376283   0.000834 -12.000473  -0.000807   9.820503  -2.173030  -6.266332  18.555149   0.920284  -4.244177  14.005181   0.006425  -0.003145  -4.057328   3.873389   1.394755 -42.422249   0.003922   0.009426 -23.286503  -3.022655   1.512018  16.065949   0.005907  -0.009926  -1.522734   5.975332   0.691577  -0.243694  -0.000109  -0.001200
 -2.423046   0.888425   4.875752   0.114864  -7.895823   1.234309   2.341408   5.817227   0.041545  -0.149523   0.857794   1.569975  -3.056143   0.667961   2.502541   2.149567   0.694234   5.853901   7.479014  19.375955  48.105463  -0.002000  20.993638  -0.000274   9.911774   2.575530   3.191753   2.255064   4.244278  -7.050978  15.027342 -12.024512 -52.226814   0.000829 -11.879412  -0.000704   9.814805  -2.240670  -6.164387  18.293284   1.052220  -4.678486  15.316163   0.008301  -0.001467  -2.943908   3.961360   1.620474 -43.807210   0.005051   0.007130 -23.053477  -3.129127   1.026780  16.559835   0.005727  -0.009176  -1.224084   6.013081   0.887491  -0.159133  -0.000125  -0.001143
 -2.420973   0.889323   4.884648   0.142356  -7.848869   1.402789   2.251971   5.775012  -0.161138  -0.131575   0.822435   1.568246  -3.063454   0.658873   2.541012   2.212769   0.680463   5.984168   7.651784  19.326504  48.186589  -0.002117  20.738775  -0.000143   9.945653   2.548341   3.291876   2.194433   4.138997  -7.064362  14.883898 -12.068743 -52.087511   0.000818 -11.768100  -0.000572   9.806947  -2.327539  -6.074000  18.053143   1.183719  -5.056214  16.583494   0.009791   0.000139  -1.839791   4.058356   1.839405 -44.429975   0.004970   0.005412 -22.787203  -3.220211   0.573436  16.987025   0.005470  -0.008116  -0.975984   6.052155   1.071293  -0.092570  -0.000117  -0.001014
 -2.418933   0.890198   4.893583   0.180431  -7.765331   1.551936   2.147556   5.730417  -0.345594  -0.126989   0.782684   1.570882  -3.073082   0.650458   2.577769   2.278225   0.659031   6.097670   7.819510  19.274956  48.259730  -0.002119  20.498671  -0.000023   9.978665   2.511097   3.395330   2.139090   4.042389  -7.066172  14.751982 -12.108514 -51.952888   0.000802 -11.664289  -0.000433   9.799179  -2.416000  -5.984139  17.831171   1.311650  -5.395580  17.795215   0.010904   0.001550  -0.756471   4.159025   2.049360 -44.473865   0.004025   0.004320 -22.513725  -3.301594   0.139415  17.377329   0.005203  -0.007016  -0.754141   6.090480   1.242600  -0.034734  -0.000100  -0.000873
 -2.416922   0.891009   4.902519   0.230908  -7.655866   1.690148   2.035597   5.686920  -0.519251  -0.133630   0.742433   1.573370  -3.084595   0.642628   2.612127   2.340780   0.635716   6.197335   7.978208  19.224639  48.325052  -0.002042  20.273849   0.000094  10.010555   2.470025   3.493067   2.087455   3.952430  -7.058813  14.629940 -12.144597 -51.821900   0.000777 -11.567318  -0.000302   9.864580  -2.509032  -5.888962  17.625261   1.434507  -5.707386  18.946631   0.011668   0.002712   0.299080   4.260021   2.249212 -44.066193   0.002598   0.003783 -22.244921  -3.374309  -0.281087  17.746711   0.004955  -0.005978  -0.548052   6.127738   1.401207   0.016911  -0.000079  -0.000737
